<svg width="132" height="96" viewBox="0 0 132 96" fill="none" xmlns="http://www.w3.org/2000/svg">
<ellipse cx="66" cy="48" rx="66" ry="48" fill="#2C4627"/>
<path d="M52.3162 62.132C50.9962 62.132 50.0842 61.868 49.5802 61.34C49.0762 60.836 48.8122 60.176 48.7882 59.36C48.7882 58.664 48.9202 57.836 49.1842 56.876C49.4722 55.892 49.7602 54.956 50.0482 54.068C50.8162 51.788 51.6202 49.568 52.4602 47.408C53.3242 45.248 54.1642 43.208 54.9802 41.288C55.8202 39.344 56.5642 37.58 57.2122 35.996C55.5802 36.02 54.1642 36.068 52.9642 36.14C51.7882 36.212 50.7082 36.308 49.7242 36.428C48.7402 36.524 47.7202 36.668 46.6642 36.86C46.7842 35.852 47.2522 35.084 48.0682 34.556C48.9082 34.004 50.0242 33.62 51.4162 33.404C52.8082 33.188 54.4042 33.08 56.2042 33.08C57.6202 33.08 58.9042 33.128 60.0562 33.224C61.2322 33.296 62.3602 33.392 63.4402 33.512C64.9522 33.656 66.1522 33.752 67.0402 33.8C67.9522 33.848 68.6002 33.872 68.9842 33.872C68.2642 34.544 67.3522 35.036 66.2482 35.348C65.1682 35.636 64.0282 35.816 62.8282 35.888C61.6282 35.96 60.4882 35.996 59.4082 35.996C58.2562 38.828 57.2002 41.768 56.2402 44.816C55.2802 47.864 54.3922 50.876 53.5762 53.852C53.2642 55.004 53.0002 55.988 52.7842 56.804C52.5922 57.596 52.4482 58.328 52.3522 59C52.2562 59.648 52.2082 60.344 52.2082 61.088C52.2082 61.208 52.2082 61.34 52.2082 61.484C52.2322 61.652 52.2682 61.868 52.3162 62.132Z" fill="#CFCECE"/>
<path d="M52.7163 57.6792C53.0465 57.2631 54.0198 56.2382 55.636 54.6044C57.283 52.9563 59.4961 50.7353 62.2753 47.9414C65.0853 45.1331 68.3957 41.7918 72.2066 37.9175C72.3625 37.77 72.4999 37.6029 72.6189 37.4163C72.7604 37.238 72.8599 37.0699 72.9174 36.912C72.9995 36.6865 72.9975 36.4814 72.9114 36.2969C72.8253 36.1123 72.5906 35.9502 72.2072 35.8107C71.26 35.4659 70.3752 35.4759 69.5529 35.8407C68.7613 36.1911 68.0671 36.7301 67.4702 37.4579C66.8958 38.1938 66.4609 38.9677 66.1654 39.7796C66.0915 39.9826 66.0166 40.2235 65.9407 40.5024C65.8647 40.7812 65.7877 41.098 65.7097 41.4527C65.1684 41.2557 64.7748 40.9336 64.5289 40.4866C64.3138 40.0251 64.2022 39.5248 64.1941 38.9855C64.1943 38.4237 64.2723 37.9285 64.4283 37.5C64.691 36.7784 65.1484 36.1531 65.8006 35.6243C66.4754 35.1037 67.2495 34.6958 68.1231 34.4008C69.0049 34.0833 69.9092 33.9144 70.836 33.8941C71.7854 33.8821 72.666 34.0239 73.4779 34.3194C74.3124 34.6231 74.9366 35.1185 75.3506 35.8055C75.7728 36.47 75.9201 37.4686 75.7926 38.8013C75.6733 40.1115 75.2032 41.8943 74.3823 44.1495C73.8488 45.6155 73.2507 47.0834 72.5879 48.5534C71.956 50.009 71.3455 51.3704 70.7567 52.6374C70.1678 53.9044 69.7051 55.0002 69.3686 55.9249C70.3039 54.7584 71.3695 53.55 72.5653 52.2996C73.7918 51.0348 75.0553 49.809 76.3556 48.6222C77.6642 47.4128 78.9286 46.2895 80.1489 45.2523C81.3693 44.2152 82.4491 43.3184 83.3884 42.5621C84.3585 41.7914 85.0876 41.2267 85.5757 40.868C86.0721 40.4868 86.4894 40.2172 86.8278 40.0595C87.1662 39.9017 87.5496 39.9008 87.9781 40.0567C88.2938 40.1716 88.7448 40.4763 89.3311 40.9706C88.9722 41.3252 88.485 41.9269 87.8696 42.7756C87.2625 43.6018 86.5753 44.5776 85.8081 45.7031C84.9773 46.9331 84.0972 48.2984 83.1679 49.7991C82.2468 51.2772 81.3514 52.7902 80.4815 54.338C79.6117 55.8859 78.8156 57.3712 78.0935 58.794C77.402 60.2024 76.8511 61.4705 76.4407 62.5981C76.2273 63.1845 76.0816 63.655 76.0035 64.0097C75.9481 64.3726 75.9203 64.6946 75.9202 64.9755C75.9345 65.2871 75.9354 65.6706 75.9229 66.1258C74.9532 65.7728 74.2623 65.3553 73.8503 64.8734C73.4608 64.3996 73.2949 63.8029 73.3526 63.0832C73.4245 62.3942 73.6534 61.5198 74.0392 60.4598C74.9504 57.9565 76.1886 55.4317 77.7538 52.8855C79.3498 50.3249 81.0648 47.7183 82.8987 45.0655C81.9388 45.7378 80.8949 46.571 79.7669 47.5651C78.6388 48.5593 77.4974 49.6252 76.3427 50.7628C75.1879 51.9005 74.0711 53.0392 72.9923 54.1789C71.9216 55.2961 70.9514 56.3477 70.0817 57.3337C69.2202 58.2972 68.5259 59.1172 67.9988 59.7937C67.6194 59.7833 67.3621 59.7535 67.2268 59.7043C66.4374 59.417 66.1024 58.7587 66.2216 57.7294C66.3716 56.6857 66.7503 55.3295 67.3577 53.6606C67.7928 52.4653 68.2791 51.1993 68.8167 49.8625C69.3626 48.5032 69.9125 47.1327 70.4665 45.7508C71.0288 44.3464 71.5397 43.0127 71.9994 41.7498C72.1225 41.4115 72.2344 41.0691 72.335 40.7226C72.4581 40.3843 72.5771 40.0573 72.692 39.7416C69.5251 43.1095 66.8269 45.9968 64.5973 48.4034C62.3985 50.7956 60.5577 52.7307 59.0748 54.2087C57.6001 55.6641 56.3654 56.6705 55.3707 57.2279C54.3679 57.8079 53.4831 57.9583 52.7163 57.6792Z" fill="#BFBDBD"/>
</svg>
